<svg xmlns="http://www.w3.org/2000/svg" viewBox="0 0 64 64">
  <defs>
    <linearGradient id="g" x1="0" y1="0" x2="1" y2="1">
      <stop offset="0%" stop-color="#6366f1"/>
      <stop offset="100%" stop-color="#22c55e"/>
    </linearGradient>
  </defs>
  <rect x="4" y="4" width="56" height="56" rx="12" fill="url(#g)"/>
  <g fill="#fff">
    <path d="M20 34h24a2 2 0 0 0 0-4H20a2 2 0 0 0 0 4z"/>
    <path d="M20 26h14a2 2 0 0 0 0-4H20a2 2 0 1 0 0 4z"/>
    <path d="M20 42h18a2 2 0 0 0 0-4H20a2 2 0 0 0 0 4z"/>
  </g>
</svg>
